<svg id="Capa_1" enable-background="new 0 0 512 512" height="512" viewBox="0 0 512 512" width="512" xmlns="http://www.w3.org/2000/svg"><g><path d="m363.494 512-107.494-107.509-107.494 107.509-148.506-148.491 107.523-107.509-107.523-107.509 148.506-148.491 107.494 107.509 107.494-107.509 148.506 148.491-107.523 107.509 107.523 107.509z" fill="#f3f5f9"/><path d="m363.494 512 148.506-148.491-107.523-107.509 107.523-107.509-148.506-148.491-107.494 107.509v296.982z" fill="#e1e6f0"/><g><path d="m256 362.055-107.494 107.523-106.084-106.069 107.523-107.509-107.523-107.509 106.084-106.069 107.494 107.523 107.494-107.523 106.084 106.069-107.523 107.509 107.523 107.509-106.084 106.069z" fill="#ec4c36"/></g><path d="m363.494 469.578 106.084-106.069-107.523-107.509 107.523-107.509-106.084-106.069-107.494 107.523v212.11z" fill="#e62e2e"/><g id="No_2_"><g><path d="m323.5 331c-24.814 0-45-20.186-45-45v-60c0-24.814 20.186-45 45-45s45 20.186 45 45v60c0 24.814-20.186 45-45 45zm0-120c-8.262 0-15 6.724-15 15v60c0 8.276 6.738 15 15 15s15-6.724 15-15v-60c0-8.276-6.738-15-15-15z" fill="#ffbe40"/></g><g><path d="m248.5 331h-40.4l-34.6-92.285v92.285h-30v-150h40.4l34.6 92.285v-92.285h30z" fill="#ffdf40"/></g></g></g></svg>