<svg id="Layer_1" enable-background="new 0 0 511.396 511.396" height="512" viewBox="0 0 511.396 511.396" width="512" xmlns="http://www.w3.org/2000/svg"><g><g><path d="m255.698 0-21.334 234.667 21.334 276.729 221.553-157.314v-354.082z" fill="#0ed678"/><path d="m34.144 0v354.082l221.554 157.314v-511.396z" fill="#04eb84"/></g><g><g><path d="m370.742 277.993c-19.739 0-38.27-7.955-50.839-21.825l-10.072-11.115 22.23-20.145 10.072 11.115c6.792 7.495 17.487 11.97 28.608 11.97 10.623 0 18.091-6.275 19.175-12.342 1.452-8.137-10.706-13.295-14.467-14.683-8.831-3.258-13.375-4.652-17.025-5.773-3.456-1.061-6.439-1.977-10.938-3.829-10.086-4.152-18.225-12.311-22.33-22.382-3.984-9.776-3.615-20.964 1.016-30.695 4.981-10.471 14.272-18.23 26.16-21.849 18.277-5.563 38.697-1.318 57.498 11.956l12.35 8.714-17.296 24.512-12.356-8.718c-11.066-7.813-22.237-10.572-31.459-7.764-3.774 1.149-6.474 3.237-7.808 6.039-1.015 2.133-1.133 4.496-.323 6.481.517 1.267 2.132 4.385 5.971 5.966 3.211 1.322 5.134 1.912 8.318 2.89 3.795 1.165 8.991 2.76 18.604 6.306 29.195 10.769 36.509 31.909 33.617 48.102-3.834 21.48-24.319 37.069-48.706 37.069z" fill="#f7f0eb"/></g></g><path d="m199.631 144.902-25.142-16.367-31.744 48.764-32.035-49.059-25.119 16.402 42.119 64.503v68.328h29.803v-67.87z" fill="#fffbf5"/><g><g fill="#f7f0eb"><path d="m293.946 277.473v-30h-38.248l-10.667 19.194 10.667 10.806z"/><path d="m290.436 220.997v-30h-34.738l-10.667 11.67 10.667 18.33z"/><path d="m293.946 164.521v-30h-38.248l-10.667 14.812 10.667 15.188z"/></g><path d="m246.352 164.521h9.346v-30h-39.346v142.952h39.346v-30h-9.346v-26.476h9.346v-30h-9.346z" fill="#fffbf5"/></g></g></svg>