<svg id="Capa_1" enable-background="new 0 0 512 512" height="512" viewBox="0 0 512 512" width="512" xmlns="http://www.w3.org/2000/svg"><g><path d="m256 51.225 209.402 169.655c8.741 7.082 21.419 6.419 29.373-1.536 9.213-9.213 8.433-24.372-1.676-32.591l-223.97-182.089c-7.649-6.218-18.61-6.218-26.259 0l-223.969 182.089c-10.109 8.219-10.889 23.378-1.676 32.591 7.955 7.955 20.632 8.618 29.373 1.536z" fill="#e7a561"/><g fill="#e49542"><path d="m220.048 55.867-202.331 163.925c7.977 7.511 20.314 8.028 28.881 1.088l209.402-169.655h-22.85c-4.771 0-9.396 1.639-13.102 4.642z"/><path d="m493.099 186.753-223.97-182.089c-7.649-6.218-18.61-6.218-26.259 0l-1.982 1.612 221.987 180.478c10.109 8.219 10.889 23.378 1.676 32.591-.158.158-.33.295-.492.448l1.343 1.088c8.741 7.082 21.419 6.419 29.373-1.536 9.213-9.214 8.433-24.373-1.676-32.592z"/></g><path d="m64.52 445.398v-239.039l191.48-155.134 191.48 155.134v239.039z" fill="#e4f6ff"/><path d="m256 51.225 144.667 156.633c10.654 11.535 16.571 26.662 16.571 42.364v195.176h30.242v-239.039z" fill="#b1e4f9"/><path d="m464.13 478.699h-416.26v-22.999c0-5.69 4.612-10.302 10.302-10.302h395.657c5.69 0 10.302 4.612 10.302 10.302v22.999z" fill="#26457d"/><path d="m474.641 512h-437.282c-5.69 0-10.302-4.612-10.302-10.302v-12.697c0-5.69 4.612-10.302 10.302-10.302h437.283c5.69 0 10.302 4.612 10.302 10.302v12.697c-.001 5.69-4.613 10.302-10.303 10.302z" fill="#30579d"/><g><circle cx="256" cy="149.11" fill="#90d8f9" r="43.707"/></g><g fill="#e28086"><path d="m233.485 226.653c0-4.267-3.459-7.726-7.726-7.726h-14.236c-4.267 0-7.726 3.459-7.726 7.726s3.459 7.726 7.726 7.726h6.51v57.463c0 4.267 3.459 7.726 7.726 7.726s7.726-3.459 7.726-7.726z"/><path d="m300.477 265.871h-.744c.095-15.759.146-32.837-.054-35.244-.451-5.4-3.703-9.807-8.286-11.227-4.551-1.41-9.385.345-12.93 4.694-3.799 4.661-21.3 36.212-26.574 45.771-1.32 2.394-1.278 5.307.112 7.66 1.39 2.354 3.92 3.798 6.653 3.798h25.518c-.028 3.691-.057 7.225-.086 10.45-.038 4.267 3.39 7.757 7.657 7.794h.07c4.235 0 7.687-3.414 7.724-7.658.018-2.041.051-5.84.088-10.587h.852c4.267 0 7.726-3.459 7.726-7.726.001-4.265-3.459-7.725-7.726-7.725zm-16.199 0h-12.493c4.623-8.264 9.124-16.188 12.582-22.119-.006 6.141-.041 14.007-.089 22.119z"/><path d="m352.476 338.91c-4.032-1.395-8.433.745-9.827 4.778l-9.243 26.733-9.496-26.79c-1.425-4.022-5.841-6.128-9.864-4.701-4.022 1.426-6.127 5.842-4.701 9.864l15.965 45.041-5.689 16.455c-1.394 4.033.745 8.433 4.778 9.827.836.289 1.688.426 2.525.426 3.202 0 6.197-2.007 7.302-5.204l23.027-66.602c1.395-4.032-.744-8.432-4.777-9.827z"/><path d="m283.921 335.558c-3.948 0-7.199 2.963-7.663 6.786-4.333-2.429-9.322-3.821-14.632-3.821-16.554 0-30.022 13.468-30.022 30.022s13.468 30.022 30.022 30.022c5.311 0 10.3-1.392 14.632-3.821.465 3.822 3.715 6.786 7.663 6.786 4.267 0 7.726-3.459 7.726-7.726v-50.521c0-4.267-3.459-7.727-7.726-7.727zm-22.296 47.557c-8.034 0-14.569-6.536-14.569-14.569s6.536-14.569 14.569-14.569c8.034 0 14.569 6.536 14.569 14.569s-6.535 14.569-14.569 14.569z"/><path d="m206.713 316.55c-4.267 0-7.726 3.459-7.726 7.726v18.011c-4.328-2.417-9.307-3.8-14.606-3.8-16.574 0-30.059 13.484-30.059 30.059s13.484 30.059 30.059 30.059c5.637 0 10.915-1.563 15.428-4.273 1.269 2.531 3.88 4.273 6.905 4.273 4.267 0 7.726-3.459 7.726-7.726v-66.602c0-4.268-3.46-7.727-7.727-7.727zm-22.332 66.601c-8.054 0-14.606-6.552-14.606-14.606s6.552-14.606 14.606-14.606 14.606 6.552 14.606 14.606-6.552 14.606-14.606 14.606z"/></g><path d="m263.726 106.098c-2.509-.448-5.088-.695-7.726-.695s-5.217.247-7.726.695v35.286h-35.286c-.448 2.509-.695 5.088-.695 7.727 0 2.638.247 5.217.695 7.726h35.286v35.286c2.509.448 5.088.695 7.726.695s5.217-.247 7.726-.695v-35.286h35.286c.448-2.509.695-5.088.695-7.726s-.247-5.217-.695-7.727h-35.286z" fill="#6bbef6"/></g></svg>